<?xml version="1.0" encoding="utf-8"?>
<!-- Generator: Adobe Illustrator 26.3.1, SVG Export Plug-In . SVG Version: 6.00 Build 0)  -->
<svg version="1.1" id="图层_1" xmlns="http://www.w3.org/2000/svg" xmlns:xlink="http://www.w3.org/1999/xlink" x="0px" y="0px"
	 viewBox="0 0 307.68 307.68" style="enable-background:new 0 0 307.68 307.68;" xml:space="preserve">
<style type="text/css">
	.st0{fill:#006EFE;}
	.st1{fill:#00E4E4;}
	.st2{fill:#04C9EA;}
</style>
<g>
	<path class="st0" d="M144.21,142.1c2.6-11.32,5.18-22.64,7.79-33.95c6.45-28.04,12.92-56.07,19.38-84.1
		c0.71-3.07,1.41-6.14,2.14-9.21c0.44-1.84,1.72-2.86,3.49-2.85c1.76,0.01,3.05,1.06,3.47,2.88c5.21,22.63,10.42,45.26,15.63,67.89
		c4.49,19.52,8.99,39.04,13.49,58.55c4.06,17.61,8.11,35.23,12.18,52.84c0.09,0.41,0.06,0.88,0.44,1.18
		c0.87,2.2,1.22,4.54,1.75,6.83c2.47,10.66,4.94,21.33,7.38,32c2.91,12.74,5.89,25.46,8.79,38.19c1.02,4.48,2.08,8.95,3.09,13.43
		c0.07,0.31,0.15,0.62,0.21,0.94c0.47,2.59-0.8,4.31-3.37,4.55c-0.32,0.01-0.64,0.04-0.96,0.04c-21.18-0.01-42.37-0.01-63.55-0.02
		c-0.28,0-0.56-0.02-0.84-0.03c-0.03-0.14,0.01-0.26,0.11-0.37c1.96-1.16,2.42-2.75,1.9-4.99c-3.52-15.18-7.06-30.36-10.52-45.56
		c-3.76-16.48-7.6-32.95-11.37-49.43c-3.15-13.75-6.33-27.5-9.51-41.24c-0.47-2.02-0.93-4.05-1.39-6.08
		C143.81,143.08,143.55,142.49,144.21,142.1z"/>
	<path class="st1" d="M144.21,142.1c-0.33,1.35,0.31,2.58,0.59,3.82c2.44,10.8,4.96,21.58,7.46,32.37
		c3.79,16.42,7.59,32.83,11.37,49.25c2.28,9.9,4.53,19.8,6.8,29.7c2.27,9.86,4.55,19.72,6.82,29.58c0.45,1.95-0.46,3.49-2.5,4.3
		c-0.43,0.17-0.87,0.08-1.31,0.08c-25.63,0-51.25,0-76.88,0c-2.22-0.14-3.62-2.09-3.12-4.41c0.88-4.06,1.85-8.11,2.79-12.16
		c2.97-12.82,5.87-25.64,8.85-38.46c2.71-11.64,5.34-23.3,8.05-34.95c2.8-12.03,5.54-24.08,8.31-36.12c0.12-0.53,0.1-1.14,0.69-1.46
		c3.28-14.21,6.56-28.42,9.84-42.63c0.47-2.04,1.67-3.12,3.5-3.15c1.78-0.03,3.07,1.06,3.54,3.09c1.57,6.71,3.12,13.43,4.68,20.14
		C143.79,141.48,143.68,141.96,144.21,142.1z"/>
	<path class="st0" d="M122.14,163.67c-1.58,6.83-3.16,13.65-4.73,20.48c-1.62,7.02-3.22,14.05-4.84,21.07
		c-3.44,14.94-6.88,29.87-10.31,44.81c-2.81,12.22-5.62,24.44-8.43,36.67c-0.48,2.08,0.35,3.61,2.4,4.43
		c0.02,0.05,0.03,0.09,0.05,0.14c-8.99,0.02-17.97,0.05-26.96,0.06c-3.91,0-7.83-0.03-11.74-0.04c-2.4-0.28-3.71-2.04-3.2-4.47
		c1.15-5.48,2.48-10.91,3.74-16.37c2.94-12.78,5.88-25.56,8.81-38.34c0.29-1.25,0.59-2.49,0.87-3.74c0.1-0.46,0.18-0.95,0.61-1.26
		c1.52-6.57,3.06-13.13,4.57-19.7c6.69-29,13.37-58,20.05-87c1.96-8.51,3.91-17.03,5.87-25.54c0.49-2.14,1.47-3.19,3.19-3.39
		c1.94-0.23,3.48,0.93,3.96,3.02c1.05,4.51,2.08,9.02,3.12,13.53c4.19,18.23,8.38,36.47,12.59,54.7
		C121.82,163.04,121.77,163.45,122.14,163.67z"/>
	<path class="st1" d="M240.04,291.28c2.6-0.73,3.56-2.32,2.97-4.9c-3.97-17.23-7.94-34.47-11.91-51.7
		c-2.94-12.73-5.89-25.46-8.82-38.19c-0.09-0.37-0.29-0.76-0.08-1.16c3.68-15.94,7.35-31.88,11.03-47.82
		c0.47-2.04,1.68-3.07,3.55-3.07c1.84,0,3.01,0.96,3.48,2.99c3.2,13.84,6.38,27.68,9.58,41.52c5.73,24.84,11.46,49.69,17.19,74.53
		c1.77,7.66,3.53,15.32,5.28,22.98c0.63,2.75-0.86,4.81-3.6,4.82C259.15,291.32,249.6,291.29,240.04,291.28z"/>
	<path class="st1" d="M68.41,227.11c-1.3,5.7-2.6,11.41-3.91,17.11c-3.24,14.04-6.48,28.08-9.71,42.12c-0.6,2.6,0.28,4.1,2.79,4.94
		c-6.23,0.01-12.47,0.04-18.7,0.01c-2.69-0.01-4.23-2.03-3.63-4.66c5.65-24.56,11.3-49.13,16.95-73.69
		c0.94-4.08,1.87-8.17,2.81-12.25c0.49-2.11,1.55-3.14,3.3-3.21c2.03-0.09,3.34,0.88,3.81,2.88c0.92,3.92,1.8,7.85,2.7,11.78
		c1.1,4.78,2.21,9.56,3.32,14.34C68.19,226.7,68.18,226.95,68.41,227.11z"/>
	<path class="st2" d="M96.28,291.26c-0.03-0.04-0.05-0.09-0.05-0.14c5.71-0.01,11.43-0.02,17.14-0.02c20.14,0,40.28,0,60.42,0
		c0.32,0,0.64,0.02,0.96,0.03c-0.01,0.05-0.02,0.09-0.05,0.14c-0.44,0.02-0.88,0.07-1.31,0.07c-25.26,0-50.53,0-75.79,0
		C97.15,291.33,96.72,291.29,96.28,291.26z"/>
</g>
</svg>
